HIERARCHY
ROOT Hips
{
	OFFSET 0.000000 0.000000 0.000000
	CHANNELS 6 Xposition Yposition Zposition Yrotation Xrotation Zrotation
	JOINT Chest
	{
		OFFSET 0.000000 -0.009281 11.569106
		CHANNELS 3 Yrotation Xrotation Zrotation
		JOINT Chest2
		{
			OFFSET -0.000000 0.016865 9.269641
			CHANNELS 3 Yrotation Xrotation Zrotation
			JOINT Chest3
			{
				OFFSET -0.000000 0.000001 8.374491
				CHANNELS 3 Yrotation Xrotation Zrotation
				JOINT Chest4
				{
					OFFSET -0.000000 0.000001 8.374493
					CHANNELS 3 Yrotation Xrotation Zrotation
					JOINT Neck
					{
						OFFSET -0.000000 0.000002 12.152554
						CHANNELS 3 Yrotation Xrotation Zrotation
						JOINT Head
						{
							OFFSET -0.000000 0.040101 7.802319
							CHANNELS 3 Yrotation Xrotation Zrotation
							End Site
							{
								OFFSET -0.000000 0.020947 14.853096
							}
						}
					}
					JOINT RightCollar
					{
						OFFSET 2.894404 0.000001 6.791374
						CHANNELS 3 Yrotation Xrotation Zrotation
						JOINT RightShoulder
						{
							OFFSET 13.574684 0.000001 0.000000
							CHANNELS 3 Yrotation Xrotation Zrotation
							JOINT RightElbow
							{
								OFFSET 23.923903 0.000002 0.000000
								CHANNELS 3 Yrotation Xrotation Zrotation
								JOINT RightWrist
								{
									OFFSET 19.846718 0.012767 0.000000
									CHANNELS 3 Yrotation Xrotation Zrotation
									End Site
									{
										OFFSET 14.973145 0.000001 0.000000
									}
								}
							}
						}
					}
					JOINT LeftCollar
					{
						OFFSET -2.894404 0.000001 6.791374
						CHANNELS 3 Yrotation Xrotation Zrotation
						JOINT LeftShoulder
						{
							OFFSET -13.574684 -0.000001 0.000000
							CHANNELS 3 Yrotation Xrotation Zrotation
							JOINT LeftElbow
							{
								OFFSET -23.923903 -0.000002 0.000000
								CHANNELS 3 Yrotation Xrotation Zrotation
								JOINT LeftWrist
								{
									OFFSET -19.846718 0.012763 0.000000
									CHANNELS 3 Yrotation Xrotation Zrotation
									End Site
									{
										OFFSET -14.973145 -0.000001 0.000000
									}
								}
							}
						}
					}
				}
			}
		}
	}
	JOINT RightHip
	{
		OFFSET 9.469263 0.004643 0.045487
		CHANNELS 3 Yrotation Xrotation Zrotation
		JOINT RightKnee
		{
			OFFSET 0.000000 0.002661 -40.478676
			CHANNELS 3 Yrotation Xrotation Zrotation
			JOINT RightAnkle
			{
				OFFSET 0.000000 0.049106 -35.224068
				CHANNELS 3 Yrotation Xrotation Zrotation
				JOINT RightToe
				{
					OFFSET -0.000001 12.539529 -6.151390
					CHANNELS 3 Yrotation Xrotation Zrotation
					End Site
					{
						OFFSET -0.000001 5.044994 -1.291870
					}
				}
			}
		}
	}
	JOINT LeftHip
	{
		OFFSET -9.469263 0.004641 0.045487
		CHANNELS 3 Yrotation Xrotation Zrotation
		JOINT LeftKnee
		{
			OFFSET 0.000000 0.002661 -40.478676
			CHANNELS 3 Yrotation Xrotation Zrotation
			JOINT LeftAnkle
			{
				OFFSET 0.000000 0.049106 -35.224068
				CHANNELS 3 Yrotation Xrotation Zrotation
				JOINT LeftToe
				{
					OFFSET -0.000001 12.539529 -6.151390
					CHANNELS 3 Yrotation Xrotation Zrotation
					End Site
					{
						OFFSET -0.000001 5.044994 -1.291870
					}
				}
			}
		}
	}
}
MOTION
Frames: 11
Frame Time: 0.016667
5.312574 3.311756 83.289330 -4.606743 -2.224516 -95.779920 -2.230142 -4.930195 1.040591 -1.052250 -2.497312 0.043766 -1.052250 -2.497312 0.043766 -0.788883 -1.873068 0.028518 9.445897 -17.266703 -19.259021 10.906308 4.191209 -32.302191 3.621498 15.109201 -4.906458 32.837873 23.580996 13.793112 -9.962694 40.115460 -8.044012 -74.863497 24.016945 2.101314 -5.881130 -0.829497 -11.013640 -31.256441 -16.008302 -0.812270 -50.405167 -64.465661 -56.003801 -37.804305 -10.375664 21.910164 0.584217 -3.486877 -1.216682 3.685365 -8.209403 -4.129128 -1.598408 6.181432 -6.138741 0.323507 0.454711 0.262231 0.372046 -1.744828 -4.573488 0.756736 -6.034282 -0.530648 0.018160 2.784968 -1.628291 -0.430855 -0.302583 -0.074390 
5.175567 3.277693 83.276016 -4.659764 -2.233788 -95.271447 -2.364591 -4.837440 1.171958 -1.112263 -2.481544 0.072950 -1.112264 -2.481544 0.072950 -0.833771 -1.861297 0.050185 9.555835 -17.375057 -19.485124 11.054578 3.995688 -32.674884 3.520529 15.012968 -4.866465 34.172249 23.012919 15.698739 -9.478378 41.874401 -7.185105 -75.516327 24.926470 1.701848 -6.127066 -1.299214 -11.066566 -31.123318 -15.699916 -1.315633 -50.991652 -64.220109 -54.977982 -38.865163 -11.683786 21.700162 0.615851 -3.359729 -1.213195 3.848195 -8.447528 -4.490505 -1.747601 6.224788 -6.288522 0.330649 0.465037 0.283333 0.413987 -1.585735 -4.554427 0.810476 -6.149885 -0.797788 -0.018743 2.780182 -1.815597 -0.365058 -0.336419 -0.076360 
5.037913 3.237508 83.254784 -4.631466 -2.287796 -94.857981 -2.490229 -4.698799 1.345006 -1.156377 -2.459375 0.107409 -1.156376 -2.459376 0.107409 -0.866717 -1.844742 0.075889 9.655439 -17.477062 -19.687202 11.190915 3.811956 -33.007193 3.669806 14.594866 -4.413966 35.285693 22.856986 17.423449 -8.584090 43.957035 -5.858903 -76.155974 25.953097 1.377595 -6.370396 -1.580063 -11.051246 -30.936536 -15.524769 -1.746711 -50.836852 -64.052367 -54.411213 -39.492936 -12.892114 21.155389 0.697793 -3.154190 -1.132694 4.006803 -8.678922 -4.836995 -1.887936 6.287201 -6.455531 0.327643 0.448551 0.293741 0.522014 -1.380131 -4.463540 0.843145 -6.235757 -1.031114 -0.081151 2.844704 -2.019660 -0.291575 -0.438362 -0.079078 
4.917375 3.193641 83.239624 -4.631412 -2.334986 -94.480149 -2.601766 -4.583038 1.496644 -1.195381 -2.437385 0.142476 -1.195381 -2.437386 0.142476 -0.895831 -1.828326 0.102072 9.735297 -17.570571 -19.866823 11.297250 3.641976 -33.305416 3.578752 13.534396 -4.260930 37.006276 23.266413 19.751024 -7.070196 45.888305 -3.887764 -76.845454 27.216391 0.911656 -6.547658 -1.778081 -10.893773 -30.816482 -15.438727 -2.156717 -50.791431 -63.909882 -53.693118 -39.472701 -13.285692 20.556952 0.769464 -2.987561 -1.062443 4.151062 -8.889494 -5.122072 -2.008928 6.328550 -6.639298 0.315407 0.441717 0.297991 0.631242 -1.232711 -4.408576 0.843790 -6.284146 -1.252103 -0.143581 2.868108 -2.150182 -0.218624 -0.506815 -0.083023 
4.817459 3.150938 83.239861 -4.623354 -2.363116 -94.166042 -2.697847 -4.489296 1.617462 -1.235926 -2.420581 0.173277 -1.235927 -2.420581 0.173277 -0.926121 -1.815795 0.125041 9.782065 -17.641161 -20.005211 11.352394 3.510962 -33.540341 3.223555 12.169954 -4.578788 39.360307 23.798336 22.729748 -5.063906 47.395601 -1.452186 -77.429552 28.337797 0.348367 -6.639480 -2.109175 -10.734088 -30.697110 -15.230022 -2.533912 -51.503082 -63.699901 -52.469305 -39.101672 -12.854208 20.217691 0.819162 -2.810824 -0.995472 4.279803 -9.075546 -5.328956 -2.107153 6.317561 -6.771286 0.291138 0.458157 0.296677 0.720917 -1.102391 -4.407360 0.834641 -6.316333 -1.420910 -0.207274 2.825951 -2.254094 -0.156713 -0.503409 -0.088983 
4.713941 3.103225 83.246445 -4.594372 -2.395554 -93.944532 -2.773215 -4.412353 1.770848 -1.279530 -2.423419 0.210680 -1.279530 -2.423419 0.210680 -0.958668 -1.818015 0.152911 9.800997 -17.671666 -20.122152 11.356376 3.449486 -33.747517 3.075628 10.731442 -4.781999 41.522687 24.298598 25.741573 -2.763647 48.669913 1.204378 -77.826201 29.205838 -0.151601 -6.684857 -2.441810 -10.672483 -30.566568 -15.041625 -2.833085 -52.700964 -63.411954 -51.139180 -38.821624 -12.657444 20.105932 0.882437 -2.664633 -0.962695 4.368558 -9.221919 -5.477530 -2.177133 6.321710 -6.914276 0.264441 0.465550 0.317108 0.798853 -0.954154 -4.451929 0.845322 -6.363571 -1.501888 -0.280689 2.775426 -2.322313 -0.113348 -0.480483 -0.099216 
4.653793 3.052070 83.252640 -4.695793 -2.426344 -93.656189 -2.852674 -4.462796 1.850733 -1.315421 -2.429652 0.260018 -1.315421 -2.429652 0.260018 -0.985383 -1.822808 0.189754 9.794783 -17.693163 -20.247088 11.310789 3.398865 -33.978548 3.262095 9.414285 -4.696842 43.060262 24.519612 28.385880 -0.419925 49.711718 3.888892 -78.130227 29.908644 -0.690412 -6.697396 -2.629027 -10.583272 -30.477540 -14.989369 -3.153424 -53.777932 -63.273554 -50.041781 -38.729567 -12.914164 19.902526 0.945026 -2.655040 -1.096106 4.427069 -9.373111 -5.629221 -2.214944 6.321344 -6.929687 0.238701 0.491586 0.361606 0.861209 -0.956791 -4.634380 0.859633 -6.413155 -1.506670 -0.353048 2.726346 -2.364842 -0.082163 -0.439530 -0.104269 
4.599588 3.001278 83.254517 -4.776105 -2.457672 -93.447663 -2.909987 -4.503094 1.955445 -1.336058 -2.444230 0.312848 -1.336058 -2.444230 0.312848 -1.000640 -1.833867 0.229255 9.754395 -17.690764 -20.365362 11.200911 3.385528 -34.210403 3.299089 8.462338 -4.622147 44.420917 24.146377 30.689239 2.092014 50.720452 6.803498 -78.311937 30.597885 -1.211325 -6.655658 -2.716332 -10.354675 -30.514119 -14.939273 -3.672430 -54.193736 -63.410527 -49.537784 -38.907531 -12.909669 19.633860 0.998640 -2.615353 -1.195190 4.490151 -9.537921 -5.783422 -2.221979 6.367799 -6.845514 0.190334 0.482156 0.364943 0.929835 -0.956266 -4.757839 0.868071 -6.460431 -1.484126 -0.425655 2.712552 -2.441041 -0.057963 -0.422473 -0.102747 
4.531280 2.950351 83.255226 -4.831748 -2.494989 -93.317016 -2.967861 -4.523467 2.105224 -1.359629 -2.465058 0.373308 -1.359631 -2.465058 0.373308 -1.018058 -1.849635 0.274452 9.720202 -17.678982 -20.481902 11.101071 3.390344 -34.437486 3.282573 7.816131 -4.645233 45.610012 23.372680 32.554379 5.312494 51.555183 10.425276 -78.604720 31.284852 -1.761090 -6.644015 -2.792791 -10.212554 -30.530249 -14.912014 -4.170320 -53.945766 -63.568659 -49.703143 -39.381457 -12.563917 19.652862 1.061648 -2.556632 -1.224206 4.540140 -9.707645 -5.909811 -2.222219 6.429853 -6.881205 0.151294 0.469260 0.367008 1.003518 -0.941749 -4.788124 0.879896 -6.486343 -1.484724 -0.500829 2.693362 -2.506479 -0.036127 -0.414728 -0.100530 
4.469049 2.898691 83.258514 -4.895355 -2.525110 -93.200902 -3.040918 -4.553720 2.256932 -1.394517 -2.484597 0.438480 -1.394518 -2.484597 0.438480 -1.043940 -1.864460 0.323138 9.708382 -17.673673 -20.593970 11.044405 3.387925 -34.648225 3.347493 7.128205 -4.482633 46.550120 22.756858 33.948506 9.359877 51.978935 14.829056 -78.892469 32.087419 -2.460809 -6.718711 -2.884179 -10.200482 -30.485853 -15.003661 -4.519956 -53.312167 -63.545150 -50.314848 -40.247358 -12.269561 20.072148 1.123655 -2.500874 -1.235053 4.566968 -9.861467 -5.989453 -2.228565 6.469743 -6.886030 0.131096 0.456116 0.366929 1.077514 -0.951920 -4.789476 0.880059 -6.486611 -1.512575 -0.570806 2.658438 -2.549516 -0.016633 -0.400673 -0.098697 
4.413646 2.852211 83.266220 -4.947222 -2.531422 -93.100963 -3.144880 -4.587567 2.424099 -1.444998 -2.504074 0.511269 -1.444999 -2.504074 0.511269 -1.081480 -1.879278 0.377470 9.729065 -17.667234 -20.701265 11.047840 3.394355 -34.839023 3.437619 6.333412 -4.334223 47.480101 22.258733 35.238387 13.731639 51.988067 19.618817 -78.881383 33.217283 -3.242474 -6.748220 -3.107069 -10.251416 -30.403378 -14.891011 -4.903332 -52.918479 -63.453427 -50.731756 -41.301512 -11.895983 20.808503 1.162325 -2.464650 -1.263239 4.582908 -9.974964 -6.028336 -2.237606 6.494216 -6.889752 0.118971 0.448065 0.353382 1.140068 -0.967063 -4.715159 0.863533 -6.456227 -1.590646 -0.639444 2.587658 -2.637294 0.008604 -0.364554 -0.097924 
